REM DIRINDEX 1\3,1\2\4,1\2\5,1\2\6
REM DIRNAME cjc137,folder01,folder02,folder03,folder04,folder05
TITLE ""
FILE "099.mp3" MP3
  TRACK 01 AUDIO
    TITLE "0:"
    INDEX 01 00:00:00
  TRACK 02 AUDIO
    TITLE "4:cjc137_4077"
    INDEX 01 00:00:03
  TRACK 03 AUDIO
    TITLE "0:"
    INDEX 01 00:01:28
  TRACK 04 AUDIO
    TITLE "6:cjc137_4078"
    INDEX 01 00:01:42
  TRACK 05 AUDIO
    TITLE "0:"
    INDEX 01 00:02:69
  TRACK 06 AUDIO
    TITLE "5:cjc137_4079"
    INDEX 01 00:03:02
  TRACK 07 AUDIO
    TITLE "0:"
    INDEX 01 00:04:27
  TRACK 08 AUDIO
    TITLE "4:cjc137_4080"
    INDEX 01 00:05:40
  TRACK 09 AUDIO
    TITLE "0:"
    INDEX 01 00:06:45
  TRACK 10 AUDIO
    TITLE "6:cjc137_4081"
    INDEX 01 00:06:51
  TRACK 11 AUDIO
    TITLE "0:"
    INDEX 01 00:08:07
  TRACK 12 AUDIO
    TITLE "5:cjc137_4082"
    INDEX 01 00:08:11
  TRACK 13 AUDIO
    TITLE "0:"
    INDEX 01 00:09:16
  TRACK 14 AUDIO
    TITLE "4:cjc137_4083"
    INDEX 01 00:10:27
  TRACK 15 AUDIO
    TITLE "0:"
    INDEX 01 00:11:42
  TRACK 16 AUDIO
    TITLE "6:cjc137_4084"
    INDEX 01 00:11:52
  TRACK 17 AUDIO
    TITLE "0:"
    INDEX 01 00:12:61
  TRACK 18 AUDIO
    TITLE "5:cjc137_4085"
    INDEX 01 00:12:69
  TRACK 19 AUDIO
    TITLE "0:"
    INDEX 01 00:14:09
  TRACK 20 AUDIO
    TITLE "4:cjc137_4086"
    INDEX 01 00:15:23
  TRACK 21 AUDIO
    TITLE "0:"
    INDEX 01 00:16:22
  TRACK 22 AUDIO
    TITLE "6:cjc137_4087"
    INDEX 01 00:16:32
  TRACK 23 AUDIO
    TITLE "0:"
    INDEX 01 00:17:41
  TRACK 24 AUDIO
    TITLE "5:cjc137_4088"
    INDEX 01 00:17:49
  TRACK 25 AUDIO
    TITLE "0:"
    INDEX 01 00:18:48
  TRACK 26 AUDIO
    TITLE "4:cjc137_4089"
    INDEX 01 00:19:65
  TRACK 27 AUDIO
    TITLE "0:"
    INDEX 01 00:20:67
  TRACK 28 AUDIO
    TITLE "6:cjc137_4090"
    INDEX 01 00:21:00
  TRACK 29 AUDIO
    TITLE "0:"
    INDEX 01 00:21:72
  TRACK 30 AUDIO
    TITLE "5:cjc137_4091"
    INDEX 01 00:22:07
  TRACK 31 AUDIO
    TITLE "0:"
    INDEX 01 00:23:08
  TRACK 32 AUDIO
    TITLE "4:cjc137_4092"
    INDEX 01 00:24:22
  TRACK 33 AUDIO
    TITLE "0:"
    INDEX 01 00:25:29
  TRACK 34 AUDIO
    TITLE "6:cjc137_4093"
    INDEX 01 00:25:37
  TRACK 35 AUDIO
    TITLE "0:"
    INDEX 01 00:26:58
  TRACK 36 AUDIO
    TITLE "5:cjc137_4094"
    INDEX 01 00:26:69
  TRACK 37 AUDIO
    TITLE "0:"
    INDEX 01 00:28:00
  TRACK 38 AUDIO
    TITLE "4:cjc137_4095"
    INDEX 01 00:29:13
  TRACK 39 AUDIO
    TITLE "0:"
    INDEX 01 00:30:38
  TRACK 40 AUDIO
    TITLE "6:cjc137_4096"
    INDEX 01 00:30:44
  TRACK 41 AUDIO
    TITLE "0:"
    INDEX 01 00:31:61
  TRACK 42 AUDIO
    TITLE "5:cjc137_4097"
    INDEX 01 00:31:69
  TRACK 43 AUDIO
    TITLE "0:"
    INDEX 01 00:33:17
  TRACK 44 AUDIO
    TITLE "4:cjc137_4098"
    INDEX 01 00:34:28
  TRACK 45 AUDIO
    TITLE "0:"
    INDEX 01 00:35:35
  TRACK 46 AUDIO
    TITLE "6:cjc137_4099"
    INDEX 01 00:35:43
  TRACK 47 AUDIO
    TITLE "0:"
    INDEX 01 00:36:44
  TRACK 48 AUDIO
    TITLE "5:cjc137_4100"
    INDEX 01 00:36:52
  TRACK 49 AUDIO
    TITLE "0:"
    INDEX 01 00:37:59
  TRACK 50 AUDIO
    TITLE "4:cjc137_4101"
    INDEX 01 00:38:73
  TRACK 51 AUDIO
    TITLE "0:"
    INDEX 01 00:40:09
  TRACK 52 AUDIO
    TITLE "6:cjc137_4102"
    INDEX 01 00:40:15
  TRACK 53 AUDIO
    TITLE "0:"
    INDEX 01 00:41:30
  TRACK 54 AUDIO
    TITLE "5:cjc137_4103"
    INDEX 01 00:41:42
  TRACK 55 AUDIO
    TITLE "0:"
    INDEX 01 00:42:53
  TRACK 56 AUDIO
    TITLE "4:cjc137_4104"
    INDEX 01 00:43:58
  TRACK 57 AUDIO
    TITLE "0:"
    INDEX 01 00:44:73
  TRACK 58 AUDIO
    TITLE "6:cjc137_4105"
    INDEX 01 00:45:08
  TRACK 59 AUDIO
    TITLE "0:"
    INDEX 01 00:46:31
  TRACK 60 AUDIO
    TITLE "5:cjc137_4106"
    INDEX 01 00:46:35
  TRACK 61 AUDIO
    TITLE "0:"
    INDEX 01 00:47:50
  TRACK 62 AUDIO
    TITLE "4:cjc137_4107"
    INDEX 01 00:48:63
  TRACK 63 AUDIO
    TITLE "0:"
    INDEX 01 00:49:70
  TRACK 64 AUDIO
    TITLE "6:cjc137_4108"
    INDEX 01 00:50:05
  TRACK 65 AUDIO
    TITLE "0:"
    INDEX 01 00:50:70
  TRACK 66 AUDIO
    TITLE "5:cjc137_4109"
    INDEX 01 00:51:01
  TRACK 67 AUDIO
    TITLE "0:"
    INDEX 01 00:52:08
  TRACK 68 AUDIO
    TITLE "4:cjc137_4110"
    INDEX 01 00:53:21
  TRACK 69 AUDIO
    TITLE "0:"
    INDEX 01 00:54:42
  TRACK 70 AUDIO
    TITLE "6:cjc137_4111"
    INDEX 01 00:54:54
  TRACK 71 AUDIO
    TITLE "0:"
    INDEX 01 00:56:37
  TRACK 72 AUDIO
    TITLE "5:cjc137_4112"
    INDEX 01 00:56:41
  TRACK 73 AUDIO
    TITLE "0:"
    INDEX 01 00:57:62
  TRACK 74 AUDIO
    TITLE "4:cjc137_4113"
    INDEX 01 00:59:02
  TRACK 75 AUDIO
    TITLE "0:"
    INDEX 01 01:00:23
  TRACK 76 AUDIO
    TITLE "6:cjc137_4114"
    INDEX 01 01:00:31
  TRACK 77 AUDIO
    TITLE "0:"
    INDEX 01 01:01:52
  TRACK 78 AUDIO
    TITLE "5:cjc137_4115"
    INDEX 01 01:01:60
  TRACK 79 AUDIO
    TITLE "0:"
    INDEX 01 01:03:06
  TRACK 80 AUDIO
    TITLE "4:cjc137_4116"
    INDEX 01 01:04:15
  TRACK 81 AUDIO
    TITLE "0:"
    INDEX 01 01:05:15
  TRACK 82 AUDIO
    TITLE "6:cjc137_4117"
    INDEX 01 01:05:28
  TRACK 83 AUDIO
    TITLE "0:"
    INDEX 01 01:06:26
  TRACK 84 AUDIO
    TITLE "5:cjc137_4118"
    INDEX 01 01:06:34
  TRACK 85 AUDIO
    TITLE "0:"
    INDEX 01 01:07:35
